<svg width="34" height="31" viewBox="0 0 34 31" fill="none" xmlns="http://www.w3.org/2000/svg">
                                                <path d="M15.4688 7.3125C15.4688 6.55078 16.0547 5.90625 16.875 5.90625C17.6367 5.90625 18.2812 6.55078 18.2812 7.3125C18.2812 8.13281 17.6367 8.71875 16.875 8.71875C16.0547 8.71875 15.4688 8.13281 15.4688 7.3125ZM15.9961 19.0312C14.1211 16.6875 9.84375 11.0039 9.84375 7.78125C9.84375 3.91406 12.9492 0.75 16.875 0.75C20.7422 0.75 23.9062 3.91406 23.9062 7.78125C23.9062 11.0039 19.5703 16.6875 17.6953 19.0312C17.2852 19.6172 16.4062 19.6172 15.9961 19.0312ZM21.4453 9.83203C21.8555 8.89453 22.0312 8.25 22.0312 7.78125C22.0312 4.96875 19.6875 2.625 16.875 2.625C14.0039 2.625 11.7188 4.96875 11.7188 7.78125C11.7188 8.25 11.8359 8.89453 12.2461 9.83203C12.5977 10.7695 13.1836 11.7656 13.7695 12.7617C14.7656 14.4023 15.9375 15.9844 16.875 17.1562C17.7539 15.9844 18.9258 14.4023 19.9219 12.7617C20.5078 11.7656 21.0938 10.7695 21.4453 9.83203ZM23.7305 13.8164C23.7305 13.875 23.6719 13.875 23.6133 13.875C24.082 13.0547 24.5508 12.1758 24.9023 11.3555L31.8164 8.60156C32.6953 8.25 33.75 8.89453 33.75 9.89062V25.7695C33.75 26.3555 33.3984 26.8828 32.8125 27.0586L23.7305 30.6914C23.5547 30.8086 23.3789 30.8086 23.1445 30.75L10.3125 27.0586L1.875 30.457C0.996094 30.8086 0 30.1641 0 29.168L0 13.2891C0 12.7031 0.292969 12.1758 0.878906 12L8.08594 9.07031C8.20312 9.71484 8.37891 10.3008 8.61328 10.8867L1.875 13.582L1.875 28.4648L9.375 25.4766V18.5625C9.375 18.0938 9.78516 17.625 10.3125 17.625C10.7813 17.625 11.25 18.0938 11.25 18.5625V25.3594L22.5 28.582V18.5625C22.5 18.0938 22.9102 17.625 23.4375 17.625C23.9062 17.625 24.375 18.0938 24.375 18.5625V28.4648L31.875 25.4766V10.5937L23.7305 13.8164Z" fill="#4AAB3D"/>
                                            </svg>