<svg width="30" height="23" viewBox="0 0 30 23" fill="none" xmlns="http://www.w3.org/2000/svg">
                                                <path d="M26.25 0.5C28.3008 0.5 30 2.19922 30 4.25V19.25C30 21.3594 28.3008 23 26.25 23H3.75C1.64063 23 0 21.3594 0 19.25L0 4.25C0 2.19922 1.64063 0.5 3.75 0.5L26.25 0.5ZM3.75 2.375C2.69531 2.375 1.875 3.25391 1.875 4.25V6.35938L13.3008 14.9727C14.2969 15.7344 15.6445 15.7344 16.6406 14.9727L28.125 6.41797V4.25C28.125 3.25391 27.2461 2.375 26.25 2.375L3.75 2.375ZM28.125 19.25V8.70312L17.8125 16.4375C16.9336 17.082 15.9375 17.4336 15 17.4336C14.0039 17.4336 13.0078 17.082 12.1875 16.4375L1.875 8.70312L1.875 19.25C1.875 20.3047 2.69531 21.125 3.75 21.125H26.25C27.2461 21.125 28.125 20.3047 28.125 19.25Z" fill="#4AAB3D"/>
                                            </svg>