<svg width="42" height="42" viewBox="0 0 42 42" fill="none" xmlns="http://www.w3.org/2000/svg">
                                                <path d="M14.5332 21.1589L12.5385 22.04C13.16 24.5227 14.4784 26.8062 16.3178 28.5859L18.0781 27.2989C18.8822 26.6994 19.987 26.7381 20.7603 27.3742L24.6985 30.4454C25.5518 31.103 25.7825 32.323 25.3143 33.2699L23.2386 37.1746C23.0513 37.5534 22.7254 37.8092 22.3702 38.0143C21.8628 38.3072 21.2674 38.448 20.6485 38.1963C15.3952 36.8316 11.0703 33.4423 8.375 28.7739C5.67969 24.1055 4.90689 18.6654 6.35167 13.4334C6.63048 12.3929 7.53602 11.7348 8.56085 11.752L12.9803 11.9068C14.0344 11.9747 14.9463 12.7338 15.1184 13.8523L15.8091 18.7985C15.9734 19.7862 15.4544 20.7624 14.5332 21.1589ZM15.5922 30.4933C12.9875 28.2083 11.2004 25.1129 10.5239 21.7146C10.471 21.2715 10.6583 20.8928 11.0643 20.6584L13.7479 19.4473C13.7479 19.4473 13.7479 19.4473 13.7987 19.418C13.9002 19.3594 14.0231 19.2207 13.986 19.0392L13.1645 14.1008C13.1781 13.89 12.9887 13.7963 12.8286 13.7534L8.43847 13.6494C8.35843 13.628 8.30769 13.6573 8.25695 13.6866C8.15546 13.7452 8.10472 13.7745 8.06182 13.9346C6.79646 18.657 7.48712 23.6032 9.94805 27.8657C12.409 32.1281 16.398 35.1701 21.1204 36.4355C21.3605 36.4998 21.5127 36.4119 21.5556 36.2518L23.6606 32.3978C23.7035 32.2377 23.6664 32.0562 23.5278 31.9333L19.6402 28.8327C19.5016 28.7098 19.24 28.7255 19.1679 28.8348L16.7772 30.5534C16.4512 30.8092 15.9496 30.7606 15.5922 30.4933ZM22.2779 5.86222C27.3534 6.45011 31.8069 9.35917 34.3558 13.7739C36.9339 18.2393 37.2264 23.5507 35.1978 28.2402C35.1042 28.4296 34.9813 28.5682 34.829 28.6561C34.5753 28.8026 34.263 28.8476 33.9936 28.7325C33.484 28.5531 33.2926 27.987 33.5013 27.5282C35.2704 23.3269 35.0171 18.6694 32.732 14.7114C30.4761 10.8041 26.5693 8.256 22.0462 7.68745C21.5445 7.63881 21.15 7.18997 21.2494 6.65898C21.2981 6.15729 21.7469 5.76284 22.2779 5.86222ZM20.673 11.0513C24.3664 11.3546 27.668 13.4403 29.4844 16.5864C31.3301 19.7832 31.4855 23.6853 29.9016 27.0355C29.8079 27.2249 29.6557 27.3128 29.5035 27.4007C29.2497 27.5472 28.9374 27.5922 28.6173 27.5064C28.1292 27.2469 27.9377 26.6809 28.1971 26.1928C29.5295 23.4614 29.4133 20.2133 27.8606 17.5239C26.3371 14.8852 23.5823 13.1605 20.5507 12.9487C19.9982 12.9293 19.6038 12.4805 19.6231 11.9281C19.6718 11.4264 20.1206 11.0319 20.673 11.0513ZM19.8921 16.8471C21.8031 16.7587 23.5954 17.7536 24.5622 19.4282C25.5583 21.1535 25.5238 23.2031 24.4917 24.8139C24.3688 24.9525 24.2673 25.0111 24.1151 25.099C23.8614 25.2455 23.469 25.269 23.1703 25.1032C22.7329 24.8144 22.5922 24.2191 22.881 23.7818C23.5814 22.7684 23.6337 21.4527 22.9892 20.3364C22.3739 19.2708 21.2084 18.6582 19.9806 18.7581C19.4574 18.7895 19.0122 18.37 18.9808 17.8469C18.9494 17.3237 19.369 16.8785 19.8921 16.8471Z" fill="#4AAB3D"/>
                                            </svg>