<svg width="42" height="50" viewBox="0 0 42 50" fill="none" xmlns="http://www.w3.org/2000/svg">
                                <path d="M40.8102 37.8259C36.0781 30.9957 33.4281 28.0137 28.7885 24.3587C28.8154 24.1383 28.831 23.9143 28.831 23.6866C28.831 22.4547 28.4237 21.3174 27.7387 20.4038C29.9488 14.8933 30.7684 10.9722 31.4869 2.66552C31.5899 1.4783 30.8378 0.392738 29.6986 0.0842372C28.5594 -0.224263 27.3709 0.335901 26.8727 1.4159C23.3854 8.97157 22.1548 12.7815 21.3421 18.6685C20.054 19.2205 19.0206 20.2648 18.4743 21.5665C12.6485 22.3876 8.87811 23.6313 1.40145 27.1551C0.332404 27.6586 -0.221931 28.8596 0.0833588 30.0108C0.380048 31.1297 1.48997 31.9192 2.63769 31.818C10.7437 31.102 14.6295 30.2867 19.9647 28.1228L18.6881 45.2432H18.0029C16.9902 45.2432 16.1663 46.0757 16.1663 47.0991V49.2187C16.1663 49.6502 16.5125 50 16.9395 50H29.2613C29.6883 50 30.0345 49.6502 30.0345 49.2187V47.0991C30.0345 46.0757 29.2106 45.2432 28.1979 45.2432H27.5127L26.5277 32.0324C29.2653 35.1096 32.2135 37.5471 37.4322 41.239C37.8537 41.5375 38.34 41.6837 38.8236 41.6837C39.4482 41.6837 40.0684 41.4396 40.5385 40.9647C41.3725 40.1219 41.4867 38.8019 40.8102 37.8259ZM28.2742 2.07626C28.4577 1.6784 28.8788 1.47996 29.2984 1.59363C29.718 1.70721 29.9845 2.09198 29.9466 2.52939C29.2699 10.3524 28.5065 14.1868 26.5374 19.2321C25.6604 18.6076 24.5924 18.2392 23.4403 18.2392C23.2792 18.2392 23.1202 18.2477 22.9626 18.2617C23.7536 12.8986 24.9899 9.19218 28.2742 2.07626ZM23.4402 19.8016C25.5602 19.8016 27.2848 21.5444 27.2848 23.6866C27.2848 25.8288 25.5602 27.5716 23.4402 27.5716C21.3203 27.5716 19.5956 25.8288 19.5956 23.6866C19.5956 21.5444 21.3204 19.8016 23.4402 19.8016ZM2.50297 30.2614C2.0704 30.2998 1.68954 30.0304 1.57714 29.6064C1.46465 29.1824 1.66113 28.7568 2.05504 28.5713C9.09662 25.2526 12.7645 24.0032 18.0718 23.2038C18.0579 23.363 18.0495 23.5237 18.0495 23.6865C18.0495 24.8507 18.4139 25.9299 19.032 26.8162C14.0391 28.8061 10.2446 29.5775 2.50297 30.2614ZM28.4883 47.0991V48.4375H17.7127V47.0991C17.7127 46.9401 17.8456 46.8057 18.003 46.8057H28.198C28.3553 46.8057 28.4883 46.9401 28.4883 47.0991ZM25.9622 45.2432H20.2389L21.4684 28.7551C22.0795 28.9987 22.7443 29.1342 23.4402 29.1342C23.6656 29.1342 23.8872 29.1184 24.1054 29.0912C24.3482 29.406 24.5881 29.7117 24.8263 30.0096L25.9622 45.2432ZM39.4451 39.8598C39.138 40.1703 38.6751 40.2112 38.3191 39.9591C31.9539 35.4559 29.0494 32.8708 25.7105 28.6258C26.861 28.0836 27.7914 27.1433 28.328 25.9807C32.5288 29.3547 35.0872 32.2899 39.5436 38.7221C39.7928 39.0816 39.7523 39.5495 39.4451 39.8598ZM32.8658 11.0029C33.139 10.6712 33.6264 10.626 33.9545 10.902C36.3376 12.9057 38.1087 15.542 39.0762 18.5258C40.0697 21.5892 40.1565 24.8613 39.3273 27.9884C39.1994 28.4707 39.0454 28.9601 38.8696 29.4428C38.7546 29.7587 38.4588 29.9545 38.1439 29.9545C38.0553 29.9545 37.9651 29.939 37.8771 29.9063C37.4764 29.7573 37.2711 29.3082 37.4184 28.9033C37.5781 28.4647 37.7178 28.0209 37.8336 27.584C39.3336 21.9275 37.4227 15.8509 32.9654 12.1032C32.6374 11.8271 32.5927 11.3345 32.8658 11.0029ZM7.2297 20.8758C7.31639 20.3686 7.42511 19.8669 7.55306 19.3848C8.38225 16.2578 10.0764 13.468 12.4525 11.317C14.7669 9.22177 17.6051 7.83357 20.6603 7.30231C21.0814 7.22926 21.4809 7.51452 21.5534 7.93982C21.6258 8.36502 21.3434 8.76903 20.9225 8.84227C15.2081 9.83594 10.5465 14.1329 9.04666 19.7893C8.93078 20.226 8.83211 20.681 8.75344 21.1418C8.6885 21.5219 8.36176 21.7902 7.99249 21.7902C7.94881 21.7902 7.90455 21.7864 7.86 21.7787C7.43932 21.7053 7.15703 21.301 7.2297 20.8758ZM16.3693 38.6077C16.2523 38.6077 16.1336 38.5809 16.0219 38.524C14.0006 37.4944 12.2404 36.0768 10.7901 34.3104C10.5174 33.9784 10.5628 33.4858 10.8913 33.2103C11.22 32.9346 11.7074 32.9806 11.98 33.3126C13.2937 34.9126 14.8877 36.1966 16.7179 37.1287C17.0992 37.3229 17.2525 37.7927 17.0603 38.178C16.9243 38.4504 16.6519 38.6077 16.3693 38.6077ZM20.1248 13.0292C20.2813 13.4307 20.0862 13.8843 19.689 14.0425C17.0411 15.0971 14.9301 17.23 13.8972 19.8943C13.7777 20.2024 13.486 20.3908 13.1771 20.3908C13.0833 20.3908 12.9879 20.3734 12.8953 20.3368C12.4977 20.1795 12.3016 19.7261 12.4574 19.3244C13.6465 16.2571 16.0756 13.8021 19.1219 12.5888C19.5191 12.4306 19.9681 12.6278 20.1248 13.0292ZM31.5848 16.1323C31.919 15.8637 32.4054 15.9199 32.6711 16.2576C34.709 18.8476 35.5979 22.201 35.11 25.4579C35.052 25.845 34.7223 26.1224 34.3465 26.1224C34.308 26.1224 34.2691 26.1195 34.2299 26.1135C33.8076 26.049 33.5172 25.6507 33.5812 25.2242C34.005 22.395 33.2322 19.4813 31.4609 17.2301C31.195 16.8923 31.2506 16.4008 31.5848 16.1323Z" fill="#4AAB3D"/>
                            </svg>