<svg width="55" height="55" viewBox="0 0 55 55" fill="none" xmlns="http://www.w3.org/2000/svg">
                                            <path d="M23.8916 52.4916H21.7666V50.9083C21.7666 50.2666 21.2416 49.7416 20.6 49.7416H19.4833V47.2999H28.525C28.9583 47.2999 29.3583 47.0833 29.5916 46.7166C29.825 46.35 29.8583 45.9 29.6833 45.5083L25.1 35.3249C24.9 34.8749 24.4416 34.575 23.9416 34.575H6.8833C6.3833 34.575 5.9333 34.8666 5.72497 35.3249L1.14164 45.5083C0.966637 45.9 0.99997 46.35 1.2333 46.7166C1.46664 47.0833 1.86664 47.2999 2.29997 47.2999H11.3416V49.7416H10.225C9.5833 49.7416 9.0583 50.2666 9.0583 50.9083V52.4916H6.94164C6.6083 52.4916 6.3333 52.7666 6.3333 53.1C6.3333 53.4333 6.6083 53.7083 6.94164 53.7083H23.8916C24.225 53.7083 24.5 53.4333 24.5 53.1C24.5 52.7666 24.2333 52.4916 23.8916 52.4916ZM28.5833 46.0083L28.5333 46.0833H23L22.4166 43.4916H27.4583L28.5833 46.0083ZM26.9083 42.2749H22.1416L21.5333 39.5916H25.7L26.9083 42.2749ZM23.95 35.7916C23.975 35.7916 23.9916 35.8083 24 35.825L25.15 38.3833H21.2583L20.675 35.7916H23.95ZM16.025 35.7916H19.4333L20.0166 38.3833H16.025V35.7916ZM16.025 39.5999H20.2916L20.9 42.2833H16.0333V39.5999H16.025ZM16.025 43.4916H21.1666L21.75 46.0833H16.0166V43.4916H16.025ZM18.275 47.2999V49.7416H12.5583V47.2999H18.275ZM11.4083 35.7916H14.8166V38.3833H10.825L11.4083 35.7916ZM14.8083 39.5999V42.2833H9.94164L10.55 39.5999H14.8083ZM6.8833 35.7916H10.1583L9.57497 38.3833H5.7083L6.8833 35.7916ZM7.84164 46.0833H2.29997L2.24997 46.0083L3.39164 43.4916H8.42497L7.84164 46.0833ZM3.94164 42.2749L5.1583 39.5916H9.29997L8.69164 42.2749H3.94164ZM9.0833 46.0833L9.66664 43.4916H14.8083V46.0833H9.0833ZM20.5583 52.4916H10.2666L10.2333 50.9499L20.5583 50.9083V52.4916Z" fill="#4AAB3D"/>
                                            <path d="M51.1667 24.3167C50.8334 23.4501 50.075 22.8417 49.1834 22.7167L40.6417 21.4334C40.65 21.3417 40.6667 21.2501 40.6667 21.1584C40.6667 19.3834 39.5834 17.8584 38.05 17.2084V2.33339C38.05 1.88339 37.7834 1.50006 37.3584 1.35839C36.9417 1.20839 36.5 1.34173 36.225 1.68339L31.7584 7.20006C31.1917 7.90839 31.0334 8.86673 31.3667 9.72506L34.3917 17.3917C33.0334 18.1167 32.0917 19.5251 32.0917 21.1667C32.0917 21.4917 32.1334 21.8001 32.2 22.1001L19.2834 29.5584C18.9 29.7751 18.7084 30.2001 18.7834 30.6334C18.8667 31.0667 19.2 31.3917 19.6334 31.4584L26.6417 32.5667C26.7667 32.5834 26.9 32.5917 27.025 32.5917C27.7917 32.5917 28.5334 32.2417 29.0167 31.6334L34.3584 24.9167C34.9667 25.2417 35.65 25.4501 36.3834 25.4501C37.3667 25.4501 38.2584 25.1084 38.9834 24.5501L52.2417 32.1917C52.4084 32.2834 52.5834 32.3334 52.7584 32.3334C53 32.3334 53.2334 32.2501 53.4334 32.0751C53.7667 31.7834 53.875 31.3417 53.7167 30.9417L51.1667 24.3167ZM32.4917 9.27506C32.325 8.83339 32.4 8.32506 32.7 7.95839L36.8334 2.85006V16.9167C36.6834 16.9001 36.5334 16.8667 36.3834 16.8667C36.0917 16.8667 35.8 16.9001 35.525 16.9501L32.4917 9.27506ZM28.0667 30.8834C27.7667 31.2584 27.3084 31.4417 26.8334 31.3667L20.35 30.3417L32.65 23.2334C32.85 23.5917 33.0834 23.9251 33.375 24.2084L28.0667 30.8834ZM36.3834 24.2334C34.6834 24.2334 33.3084 22.8501 33.3084 21.1584C33.3084 19.4584 34.6917 18.0834 36.3834 18.0834C38.075 18.0834 39.4584 19.4667 39.4584 21.1584C39.4584 22.8584 38.075 24.2334 36.3834 24.2334ZM39.8584 23.6501C40.0834 23.3417 40.2584 22.9917 40.3917 22.6251L49.0084 23.9167C49.4667 23.9751 49.8584 24.3001 50.025 24.7501L52.3834 30.8751L39.8584 23.6501Z" fill="#4AAB3D"/>
                                            <path d="M44.175 52.4917H42.5333L39 26.8334C38.9583 26.5001 38.65 26.2751 38.3166 26.3167C37.9833 26.3584 37.75 26.6667 37.8 27.0001L38.9 34.9751H36.9083C36.575 34.9751 36.3 35.2501 36.3 35.5834C36.3 35.9167 36.575 36.1917 36.9083 36.1917H39.0666L40.7 48.0501H37.0916C36.7583 48.0501 36.4833 48.3251 36.4833 48.6584C36.4833 48.9917 36.7583 49.2667 37.0916 49.2667H40.8666L41.3083 52.4917H31.5916L32.875 43.1501H36.3583C36.6916 43.1501 36.9666 42.8751 36.9666 42.5417C36.9666 42.2084 36.6916 41.9334 36.3583 41.9334H33.0416L35.0916 27.0501C35.1333 26.7167 34.9083 26.4084 34.575 26.3667C34.2333 26.3251 33.9333 26.5501 33.8916 26.8834L30.3666 52.4917H28.8083C28.475 52.4917 28.2 52.7667 28.2 53.1001C28.2 53.4334 28.475 53.7084 28.8083 53.7084H44.1666C44.5 53.7084 44.775 53.4334 44.775 53.1001C44.775 52.7667 44.5083 52.4917 44.175 52.4917Z" fill="#4AAB3D"/>
                                            <path d="M20.25 13.9418C20.5833 13.9418 20.8583 13.6668 20.8583 13.3334C20.8583 11.6668 22.2166 10.3084 23.8833 10.3084C25.55 10.3084 26.9 11.6668 26.9 13.3334C26.9 15.0001 25.55 16.3501 23.8833 16.3501H10.2416C9.9083 16.3501 9.6333 16.6251 9.6333 16.9584C9.6333 17.2918 9.9083 17.5668 10.2416 17.5668H23.8833C26.2166 17.5668 28.1166 15.6668 28.1166 13.3334C28.1166 11.0001 26.2166 9.1001 23.8833 9.1001C21.55 9.1001 19.65 11.0001 19.65 13.3334C19.6416 13.6751 19.9083 13.9418 20.25 13.9418Z" fill="#4AAB3D"/>
                                            <path d="M3.01654 11.9166H13.4165C15.7499 11.9166 17.6499 10.0166 17.6499 7.68329C17.6499 5.34995 15.7499 3.44995 13.4165 3.44995C11.0832 3.44995 9.1832 5.34995 9.1832 7.68329C9.1832 8.01662 9.4582 8.29162 9.79154 8.29162C10.1249 8.29162 10.3999 8.01662 10.3999 7.68329C10.3999 6.01662 11.7582 4.65828 13.4249 4.65828C15.0915 4.65828 16.4415 6.01662 16.4415 7.68329C16.4415 9.34995 15.0915 10.7 13.4249 10.7H3.01654C2.6832 10.7 2.4082 10.975 2.4082 11.3083C2.41654 11.6416 2.6832 11.9166 3.01654 11.9166Z" fill="#4AAB3D"/>
                                            <path d="M42.4001 11.9167H50.2167C52.2834 11.9167 53.9584 10.2417 53.9584 8.17505C53.9584 6.10838 52.2834 4.42505 50.2167 4.42505C48.1501 4.42505 46.4667 6.10838 46.4667 8.17505C46.4667 8.50838 46.7417 8.78338 47.0751 8.78338C47.4084 8.78338 47.6834 8.50838 47.6834 8.17505C47.6834 6.77505 48.8167 5.64172 50.2167 5.64172C51.6084 5.64172 52.7417 6.77505 52.7417 8.17505C52.7417 9.56672 51.6084 10.7 50.2167 10.7H42.4001C42.0667 10.7 41.7917 10.975 41.7917 11.3084C41.8001 11.6417 42.0667 11.9167 42.4001 11.9167Z" fill="#4AAB3D"/>
                                            <path d="M42.0082 16.3251H50.4166C50.7499 16.3251 51.0249 16.0501 51.0249 15.7167C51.0249 15.3834 50.7499 15.1084 50.4166 15.1084H42.0082C41.6749 15.1084 41.3999 15.3834 41.3999 15.7167C41.3999 16.0501 41.6666 16.3251 42.0082 16.3251Z" fill="#4AAB3D"/>
                                            <path d="M4.73333 20.55C4.4 20.55 4.125 20.825 4.125 21.1584C4.125 21.4917 4.4 21.7667 4.73333 21.7667H16.125C16.4583 21.7667 16.7333 21.4917 16.7333 21.1584C16.7333 20.825 16.4583 20.55 16.125 20.55H4.73333Z" fill="#4AAB3D"/>
                                        </svg>